<svg xmlns="http://www.w3.org/2000/svg" version="1.1" xmlns:xlink="http://www.w3.org/1999/xlink" xmlns:svgjs="http://svgjs.com/svgjs" width="5000" height="2500" preserveAspectRatio="none" viewBox="0 0 5000 2500"><g mask="url(&quot;#SvgjsMask1033&quot;)" fill="none"><rect width="5000" height="2500" x="0" y="0" fill="rgba(24, 106, 59, 1)"></rect><path d="M0,1135.687C250.322,1136.174,537.906,1298.196,735.699,1144.771C936.619,988.92,878.132,671.403,921.547,420.857C954.063,233.206,944.6,52.25,957.931,-137.73C975.596,-389.476,1125.633,-651.806,1012.652,-877.468C897.328,-1107.811,626.298,-1218.649,379.612,-1292.838C131.897,-1367.336,-132.391,-1369.037,-380.688,-1296.503C-629.203,-1223.906,-840.726,-1070.615,-1020.123,-883.942C-1206.89,-689.601,-1424.226,-474.976,-1429.183,-205.485C-1434.084,60.994,-1167.386,240.462,-1045.162,477.309C-930.658,699.196,-945.13,1008.83,-733.863,1141.914C-522.598,1274.996,-249.687,1135.202,0,1135.687" fill="#13552f"></path><path d="M5000 4157.723C5311.937 4109.105 5592.497 3996.788 5883.957 3875.464 6240.51 3727.045 6676.12 3682.6549999999997 6898.996 3367.243 7129.9169999999995 3040.447 7187.989 2584.013 7065.761 2202.988 6948.226000000001 1836.591 6542.354 1671.109 6268.265 1401.042 6020.226 1156.643 5866.187 785.9649999999999 5531.189 690.935 5196.709 596.0509999999999 4858.007 785.8679999999999 4532.759 908.7239999999999 4230.254 1022.989 3933.178 1148.472 3707.304 1379.873 3472.2290000000003 1620.701 3264.949 1910.726 3228.16 2245.248 3191.8289999999997 2575.611 3397.5370000000003 2867.785 3509.249 3180.803 3632.937 3527.379 3611.4629999999997 3979.984 3919.248 4181.682 4226.867 4383.271 4636.599 4214.362 5000 4157.723" fill="#1d7f47"></path></g><defs><mask id="SvgjsMask1033"><rect width="5000" height="2500" fill="#ffffff"></rect></mask></defs></svg>