<svg xmlns="http://www.w3.org/2000/svg" version="1.1" xmlns:xlink="http://www.w3.org/1999/xlink" xmlns:svgjs="http://svgjs.com/svgjs" width="4000" height="1999" preserveAspectRatio="none" viewBox="0 0 4000 1999"><g mask="url(&quot;#SvgjsMask1221&quot;)" fill="none"><rect width="4000" height="1999" x="0" y="0" fill="url(#SvgjsLinearGradient1222)"></rect><path d="M2922.2 1103.68a28.48 28.48 0 1 0-55.54 12.66z" stroke="rgba(190, 35, 13, 1)"></path><path d="M288.14 1193.28a7.01 7.01 0 1 0-4.49-13.29z" fill="rgba(190, 35, 13, 1)"></path><path d="M2469.28 41.62L2600.68 41.62L2600.68 173.02L2469.28 173.02z" fill="#d3b714"></path><path d="M2602.64 1557.5 a98.22 98.22 0 1 0 196.44 0 a98.22 98.22 0 1 0 -196.44 0z" stroke="rgba(76, 69, 69, 1)"></path><path d="M3527.56 993.92a66.32 66.32 0 1 0-69.39 113.04z" fill="rgba(190, 35, 13, 1)"></path><path d="M4036.61 305.77a107.06 107.06 0 1 0-180.46 115.23z" stroke="#d3b714"></path><path d="M940.44 583.66a178.2 178.2 0 1 0-152.64 322.06z" fill="rgba(76, 69, 69, 1)"></path><path d="M2592.09 637.79L2754.05 637.79L2754.05 799.75L2592.09 799.75z" fill="rgba(190, 35, 13, 1)"></path><path d="M842.96 63.07L991.79 63.07L991.79 105.6L842.96 105.6z" fill="rgba(190, 35, 13, 1)"></path><path d="M1905.48 838.46L2043.34 838.46L2043.34 976.32L1905.48 976.32z" stroke="rgba(190, 35, 13, 1)"></path><path d="M3321.81 892.23L3496.47 892.23L3496.47 1027.08L3321.81 1027.08z" fill="rgba(76, 69, 69, 1)"></path><path d="M965.62 383.86a18.27 18.27 0 1 0 32.94 15.8z" fill="rgba(76, 69, 69, 1)"></path><path d="M3451.29 1732.09L3617.98 1732.09L3617.98 1898.78L3451.29 1898.78z" fill="rgba(76, 69, 69, 1)"></path><path d="M1821.23 1065.25L1914.52 1065.25L1914.52 1158.54L1821.23 1158.54z" fill="#d3b714"></path><path d="M1292.38 1834.34L1385.05 1834.34L1385.05 2012.31L1292.38 2012.31z" fill="rgba(76, 69, 69, 1)"></path><path d="M3813.31 1546.9L3911.04 1546.9L3911.04 1644.63L3813.31 1644.63z" stroke="rgba(76, 69, 69, 1)"></path><path d="M640.62 1320.52 a104.3 104.3 0 1 0 208.6 0 a104.3 104.3 0 1 0 -208.6 0z" stroke="rgba(76, 69, 69, 1)"></path><path d="M1323.7 182.47L1450.98 182.47L1450.98 309.75L1323.7 309.75z" fill="#d3b714"></path><path d="M2927.08 1090.5 a29.63 29.63 0 1 0 59.26 0 a29.63 29.63 0 1 0 -59.26 0z" fill="rgba(76, 69, 69, 1)"></path><path d="M1203.1 715.77L1344.96 715.77L1344.96 857.63L1203.1 857.63z" fill="#d3b714"></path><path d="M612.35 1360.07a133.88 133.88 0 1 0 38.27-265.01z" stroke="rgba(76, 69, 69, 1)"></path><path d="M1640.51 1949.6L1785.4 1949.6L1785.4 2094.49L1640.51 2094.49z" stroke="rgba(190, 35, 13, 1)"></path><path d="M532.91 1223.29a129.52 129.52 0 1 0 254.72 47.06z" fill="#d3b714"></path><path d="M1366.14 1398.15a47.47 47.47 0 1 0-42.53 84.88z" stroke="rgba(76, 69, 69, 1)"></path><path d="M335.1 898.81L385.08 898.81L385.08 1049.6L335.1 1049.6z" fill="rgba(190, 35, 13, 1)"></path><path d="M1477.24 986.24L1633.8 986.24L1633.8 1142.8L1477.24 1142.8z" stroke="rgba(76, 69, 69, 1)"></path></g><defs><mask id="SvgjsMask1221"><rect width="4000" height="1999" fill="#ffffff"></rect></mask><linearGradient x1="12.51%" y1="-25.03%" x2="87.49%" y2="125.03%" gradientUnits="userSpaceOnUse" id="SvgjsLinearGradient1222"><stop stop-color="rgba(11, 36, 13, 1)" offset="0.2"></stop><stop stop-color="rgba(43, 100, 46, 1)" offset="1"></stop></linearGradient></defs></svg>